<svg xmlns="http://www.w3.org/2000/svg" xmlns:xlink="http://www.w3.org/1999/xlink" viewBox="0,0,256,256" width="30px" height="30px" fill-rule="nonzero"><g fill="#ff8d00" fill-rule="nonzero" stroke="none" stroke-width="1" stroke-linecap="butt" stroke-linejoin="miter" stroke-miterlimit="10" stroke-dasharray="" stroke-dashoffset="0" font-family="none" font-weight="none" font-size="none" text-anchor="none" style="mix-blend-mode: normal"><g transform="scale(8.53333,8.53333)"><path d="M15,3c-7.18,0 -13,4.925 -13,11c0,3.368 1.794,6.379 4.612,8.397c0.072,1.537 -0.167,3.66 -2.29,4.637v0.002c-0.187,0.072 -0.322,0.251 -0.322,0.464c0,0.276 0.224,0.5 0.5,0.5c2.453,0 4.535,-1.324 5.969,-2.722c0.452,-0.441 1.082,-0.659 1.703,-0.542c0.91,0.173 1.856,0.264 2.828,0.264c7.18,0 13,-4.925 13,-11c0,-6.075 -5.82,-11 -13,-11z"></path></g></g></svg>